<svg width="0" height="0" class="hidden">
  <symbol fill="none" xmlns="http://www.w3.org/2000/svg" viewBox="0 0 38 32" id="Arrow">
    <g id="Arrow">
      <path id="Vector 7 (Stroke)" fill-rule="evenodd" clip-rule="evenodd" d="M3.59999 3.7C3.76567 3.47909 4.07907 3.43431 4.29999 3.6L7.89999 6.3C8.1209 6.46568 8.16567 6.77908 7.99999 7C7.8343 7.22091 7.5209 7.26568 7.29999 7.1L4.69322 5.14493C7.6985 21.5076 22.9712 29.4042 35.9089 27.0084L36.091 27.9916C22.6496 30.4808 6.77057 22.2626 3.6942 5.24105L1.69999 7.9C1.5343 8.12091 1.2209 8.16568 0.999987 8C0.779073 7.83431 0.734301 7.52091 0.899987 7.3L3.59999 3.7Z" fill="#8A91AB"></path>
    </g>
  </symbol>
  <symbol fill="none" xmlns="http://www.w3.org/2000/svg" viewBox="0 0 24 24" id="big_left">
    <path d="M15.535 3.51501L7.04999 12L15.535 20.485L16.95 19.071L9.87799 12L16.95 4.92901L15.535 3.51501Z" fill="#8A91AB"></path>
  </symbol>
  <symbol fill="none" xmlns="http://www.w3.org/2000/svg" viewBox="0 0 40 40" id="Bookmark">
    <g id="Bookmark">
      <path id="Vector" d="M8.33333 7.50007C8.33333 6.39498 8.74305 5.33516 9.47236 4.55374C10.2017 3.77233 11.1908 3.33333 12.2222 3.33333L27.7778 3.33333C28.8092 3.33333 29.7983 3.77233 30.5276 4.55374C31.2569 5.33516 31.6667 6.39498 31.6667 7.50007V35.6255C31.6666 35.8139 31.6188 35.9988 31.5284 36.1604C31.438 36.3221 31.3084 36.4544 31.1533 36.5433C30.9983 36.6323 30.8236 36.6745 30.648 36.6655C30.4723 36.6565 30.3022 36.5966 30.1558 36.4922L20 30.6275L9.84416 36.4922C9.69776 36.5966 9.52767 36.6565 9.35201 36.6655C9.17635 36.6745 9.0017 36.6323 8.84666 36.5433C8.69162 36.4544 8.562 36.3221 8.47161 36.1604C8.38121 35.9988 8.33342 35.8139 8.33333 35.6255V7.50007ZM12.2222 5.4167C11.7065 5.4167 11.2119 5.6362 10.8473 6.02691C10.4826 6.41761 10.2778 6.94752 10.2778 7.50007V33.6797L19.4614 28.5087C19.6209 28.395 19.8083 28.3343 20 28.3343C20.1917 28.3343 20.379 28.395 20.5386 28.5087L29.7222 33.6797V7.50007C29.7222 6.94752 29.5174 6.41761 29.1527 6.02691C28.788 5.6362 28.2935 5.4167 27.7778 5.4167H12.2222Z" fill="#8A91AB"></path>
    </g>
  </symbol>
  <symbol fill="none" xmlns="http://www.w3.org/2000/svg" viewBox="0 0 24 24" id="Bookmark_active">
    <g id="Bookmark_use">
      <g id="Vector">
        <path d="M5 4.50004C5 3.83699 5.24583 3.20109 5.68342 2.73224C6.121 2.2634 6.71449 2 7.33333 2H16.6667C17.2855 2 17.879 2.2634 18.3166 2.73224C18.7542 3.20109 19 3.83699 19 4.50004V21.3753C18.9999 21.4884 18.9713 21.5993 18.917 21.6963C18.8628 21.7932 18.785 21.8726 18.692 21.926C18.599 21.9794 18.4942 22.0047 18.3888 21.9993C18.2834 21.9939 18.1813 21.958 18.0935 21.8953L12 18.3765L5.9065 21.8953C5.81866 21.958 5.7166 21.9939 5.61121 21.9993C5.50581 22.0047 5.40102 21.9794 5.308 21.926C5.21498 21.8726 5.1372 21.7932 5.08297 21.6963C5.02873 21.5993 5.00005 21.4884 5 21.3753V4.50004ZM7.33333 3.25002C7.02391 3.25002 6.72717 3.38172 6.50838 3.61614C6.28958 3.85057 6.16667 4.16851 6.16667 4.50004V20.2078L11.6768 17.1052C11.7726 17.037 11.885 17.0006 12 17.0006C12.115 17.0006 12.2274 17.037 12.3232 17.1052L17.8333 20.2078V4.50004C17.8333 4.16851 17.7104 3.85057 17.4916 3.61614C17.2728 3.38172 16.9761 3.25002 16.6667 3.25002H7.33333Z" fill="#8A91AB"></path>
        <path d="M7.33333 3.25002C7.02391 3.25002 6.72717 3.38172 6.50838 3.61614C6.28958 3.85057 6.16667 4.16851 6.16667 4.50004V20.2078L11.6768 17.1052C11.7726 17.037 11.885 17.0006 12 17.0006C12.115 17.0006 12.2274 17.037 12.3232 17.1052L17.8333 20.2078V4.50004C17.8333 4.16851 17.7104 3.85057 17.4916 3.61614C17.2728 3.38172 16.9761 3.25002 16.6667 3.25002H7.33333Z" fill="#8A91AB"></path>
      </g>
    </g>
  </symbol>
  <symbol fill="none" xmlns="http://www.w3.org/2000/svg" viewBox="0 0 512 512" id="logo">
    <circle cx="172.402" cy="190.478" r="66.4204" fill="url(#paint0_radial_3398_650)"></circle>
    <g opacity="0.67" filter="url(#filter0_f_3398_650)">
      <path d="M313.124 199.407C357.607 239.553 461.998 282.123 421.852 326.607C381.706 371.091 152.24 498.162 56.6977 449.045C12.2141 408.899 96.5514 279.634 136.697 235.15C176.844 190.667 268.64 159.261 313.124 199.407Z" fill="url(#paint1_linear_3398_650)" fill-opacity="0.3"></path>
    </g>
    <g filter="url(#filter1_ii_3398_650)">
      <path fill-rule="evenodd" clip-rule="evenodd" d="M244.285 372.779V372.782H156.94C113.465 372.782 78.222 337.539 78.222 294.064C78.222 250.589 113.465 215.346 156.94 215.346H161.254C176.512 215.346 190.81 219.462 203.096 226.644C219.069 179.323 263.821 145.251 316.532 145.251H322.463C385.293 145.251 436.227 196.185 436.227 259.015C436.227 321.845 385.293 372.779 322.463 372.779H244.285Z" fill="white"></path>
    </g>
    <defs>
      <filter id="filter0_f_3398_650" x="-426.854" y="-290.006" width="1328.65" height="1221.09" filterUnits="userSpaceOnUse" color-interpolation-filters="sRGB">
        <feFlood flood-opacity="0" result="BackgroundImageFix"></feFlood>
        <feBlend mode="normal" in="SourceGraphic" in2="BackgroundImageFix" result="shape"></feBlend>
        <feGaussianBlur stdDeviation="235.468" result="effect1_foregroundBlur_3398_650"></feGaussianBlur>
      </filter>
      <filter id="filter1_ii_3398_650" x="-110.152" y="-11.7278" width="630.101" height="499.628" filterUnits="userSpaceOnUse" color-interpolation-filters="sRGB">
        <feFlood flood-opacity="0" result="BackgroundImageFix"></feFlood>
        <feBlend mode="normal" in="SourceGraphic" in2="BackgroundImageFix" result="shape"></feBlend>
        <feColorMatrix in="SourceAlpha" type="matrix" values="0 0 0 0 0 0 0 0 0 0 0 0 0 0 0 0 0 0 127 0" result="hardAlpha"></feColorMatrix>
        <feOffset dx="83.722" dy="-156.979"></feOffset>
        <feGaussianBlur stdDeviation="156.979"></feGaussianBlur>
        <feComposite in2="hardAlpha" operator="arithmetic" k2="-1" k3="1"></feComposite>
        <feColorMatrix type="matrix" values="0 0 0 0 0 0 0 0 0 0 0 0 0 0 0 0 0 0 0.2 0"></feColorMatrix>
        <feBlend mode="normal" in2="shape" result="effect1_innerShadow_3398_650"></feBlend>
        <feColorMatrix in="SourceAlpha" type="matrix" values="0 0 0 0 0 0 0 0 0 0 0 0 0 0 0 0 0 0 127 0" result="hardAlpha"></feColorMatrix>
        <feOffset dx="-188.374" dy="115.118"></feOffset>
        <feGaussianBlur stdDeviation="156.979"></feGaussianBlur>
        <feComposite in2="hardAlpha" operator="arithmetic" k2="-1" k3="1"></feComposite>
        <feColorMatrix type="matrix" values="0 0 0 0 1 0 0 0 0 1 0 0 0 0 1 0 0 0 1 0"></feColorMatrix>
        <feBlend mode="normal" in2="effect1_innerShadow_3398_650" result="effect2_innerShadow_3398_650"></feBlend>
      </filter>
      <radialGradient id="paint0_radial_3398_650" cx="0" cy="0" r="1" gradientUnits="userSpaceOnUse" gradientTransform="translate(198.83 154.273) rotate(132.136) scale(138.393 138.393)">
        <stop stop-color="#FFF72C"></stop>
        <stop offset="1" stop-color="#DF7800"></stop>
      </radialGradient>
      <linearGradient id="paint1_linear_3398_650" x1="103.94" y1="468.714" x2="362.326" y2="178.737" gradientUnits="userSpaceOnUse">
        <stop stop-color="#254659"></stop>
        <stop offset="1" stop-color="#023553"></stop>
      </linearGradient>
    </defs>
  </symbol>
</svg>
