<svg width="153" height="145" viewBox="0 0 153 145" fill="none" xmlns="http://www.w3.org/2000/svg">
<g id="Group 231" filter="url(#filter0_d_1506_803)">
<circle id="Ellipse 23" cx="16" cy="18" r="5" fill="#BBB185"/>
<circle id="Ellipse 33" cx="16" cy="60" r="5" fill="#BBB185"/>
<circle id="Ellipse 43" cx="16" cy="102" r="5" fill="#BBB185"/>
<circle id="Ellipse 28" cx="29" cy="39" r="5" fill="#BBB185"/>
<circle id="Ellipse 34" cx="29" cy="81" r="5" fill="#BBB185"/>
<circle id="Ellipse 44" cx="29" cy="123" r="5" fill="#BBB185"/>
<circle id="Ellipse 24" cx="41" cy="18" r="5" fill="#BBB185"/>
<circle id="Ellipse 35" cx="41" cy="60" r="5" fill="#BBB185"/>
<circle id="Ellipse 45" cx="41" cy="102" r="5" fill="#BBB185"/>
<circle id="Ellipse 29" cx="54" cy="39" r="5" fill="#BBB185"/>
<circle id="Ellipse 36" cx="54" cy="81" r="5" fill="#BBB185"/>
<circle id="Ellipse 46" cx="54" cy="123" r="5" fill="#BBB185"/>
<circle id="Ellipse 25" cx="66" cy="18" r="5" fill="#BBB185"/>
<circle id="Ellipse 37" cx="66" cy="60" r="5" fill="#BBB185"/>
<circle id="Ellipse 47" cx="66" cy="102" r="5" fill="#BBB185"/>
<circle id="Ellipse 30" cx="79" cy="39" r="5" fill="#BBB185"/>
<circle id="Ellipse 38" cx="79" cy="81" r="5" fill="#BBB185"/>
<circle id="Ellipse 48" cx="79" cy="123" r="5" fill="#BBB185"/>
<circle id="Ellipse 26" cx="91" cy="18" r="5" fill="#BBB185"/>
<circle id="Ellipse 39" cx="91" cy="60" r="5" fill="#BBB185"/>
<circle id="Ellipse 49" cx="91" cy="102" r="5" fill="#BBB185"/>
<circle id="Ellipse 31" cx="104" cy="39" r="5" fill="#BBB185"/>
<circle id="Ellipse 40" cx="104" cy="81" r="5" fill="#BBB185"/>
<circle id="Ellipse 50" cx="104" cy="123" r="5" fill="#BBB185"/>
<circle id="Ellipse 27" cx="116" cy="18" r="5" fill="#BBB185"/>
<circle id="Ellipse 41" cx="116" cy="60" r="5" fill="#BBB185"/>
<circle id="Ellipse 51" cx="116" cy="102" r="5" fill="#BBB185"/>
<circle id="Ellipse 32" cx="129" cy="39" r="5" fill="#BBB185"/>
<circle id="Ellipse 42" cx="129" cy="81" r="5" fill="#BBB185"/>
<circle id="Ellipse 52" cx="129" cy="123" r="5" fill="#BBB185"/>
</g>
<defs>
<filter id="filter0_d_1506_803" x="0" y="0" width="153" height="145" filterUnits="userSpaceOnUse" color-interpolation-filters="sRGB">
<feFlood flood-opacity="0" result="BackgroundImageFix"/>
<feColorMatrix in="SourceAlpha" type="matrix" values="0 0 0 0 0 0 0 0 0 0 0 0 0 0 0 0 0 0 127 0" result="hardAlpha"/>
<feOffset dx="4" dy="2"/>
<feGaussianBlur stdDeviation="7.5"/>
<feComposite in2="hardAlpha" operator="out"/>
<feColorMatrix type="matrix" values="0 0 0 0 0.854167 0 0 0 0 0.854167 0 0 0 0 0.854167 0 0 0 1 0"/>
<feBlend mode="normal" in2="BackgroundImageFix" result="effect1_dropShadow_1506_803"/>
<feBlend mode="normal" in="SourceGraphic" in2="effect1_dropShadow_1506_803" result="shape"/>
</filter>
</defs>
</svg>
