<svg width="0" height="0" class="hidden">
  <symbol fill="none" xmlns="http://www.w3.org/2000/svg" viewBox="0 0 38 32" id="Arrow">
    <g id="Arrow">
      <path id="Vector 7 (Stroke)" fill-rule="evenodd" clip-rule="evenodd" d="M3.59999 3.7C3.76567 3.47909 4.07907 3.43431 4.29999 3.6L7.89999 6.3C8.1209 6.46568 8.16567 6.77908 7.99999 7C7.8343 7.22091 7.5209 7.26568 7.29999 7.1L4.69322 5.14493C7.6985 21.5076 22.9712 29.4042 35.9089 27.0084L36.091 27.9916C22.6496 30.4808 6.77057 22.2626 3.6942 5.24105L1.69999 7.9C1.5343 8.12091 1.2209 8.16568 0.999987 8C0.779073 7.83431 0.734301 7.52091 0.899987 7.3L3.59999 3.7Z" fill="#8A91AB"></path>
    </g>
  </symbol>
  <symbol fill="none" xmlns="http://www.w3.org/2000/svg" viewBox="0 0 24 24" id="barometer">
    <g id="barometer 1" clip-path="url(#clip0_1506_2782)">
      <ellipse id="Ellipse 14" cx="12" cy="13" rx="10.8" ry="10.8" fill="#494F68"></ellipse>
      <path id="Vector" d="M14.1665 14.1053C14.3406 13.7656 14.4334 13.3874 14.4334 12.9948C14.4334 11.6471 13.3427 10.5562 11.9948 10.5562C11.602 10.5562 11.224 10.649 10.8843 10.8231L8.28098 8.21982C7.98788 7.92673 7.51277 7.92673 7.21982 8.21982C6.92673 8.51277 6.92673 8.98788 7.21982 9.28098L9.8231 11.8843C9.649 12.224 9.55624 12.6022 9.55624 12.9948C9.55624 14.3425 10.6468 15.4334 11.9948 15.4334C12.3875 15.4334 12.7656 15.3406 13.1053 15.1665L13.7191 15.7802C14.012 16.0732 14.4873 16.0733 14.7802 15.7802C15.0733 15.4873 15.0733 15.0122 14.7802 14.7191L14.1665 14.1053ZM11.9948 13.9327C11.4765 13.9327 11.0569 13.5133 11.0569 12.9948C11.0569 12.4782 11.4756 12.0569 11.9948 12.0569C12.5131 12.0569 12.9327 12.4763 12.9327 12.9948C12.9327 13.5114 12.514 13.9327 11.9948 13.9327Z" fill="white"></path>
    </g>
    <defs>
      <clipPath id="clip0_1506_2782">
        <rect width="24" height="24" fill="white"></rect>
      </clipPath>
    </defs>
  </symbol>
  <symbol fill="none" xmlns="http://www.w3.org/2000/svg" viewBox="0 0 24 24" id="big_left">
    <path d="M15.535 3.51501L7.04999 12L15.535 20.485L16.95 19.071L9.87799 12L16.95 4.92901L15.535 3.51501Z" fill="#8A91AB"></path>
  </symbol>
  <symbol fill="none" xmlns="http://www.w3.org/2000/svg" viewBox="0 0 40 40" id="Bookmark">
    <g id="Bookmark">
      <path id="Vector" d="M8.33333 7.50007C8.33333 6.39498 8.74305 5.33516 9.47236 4.55374C10.2017 3.77233 11.1908 3.33333 12.2222 3.33333L27.7778 3.33333C28.8092 3.33333 29.7983 3.77233 30.5276 4.55374C31.2569 5.33516 31.6667 6.39498 31.6667 7.50007V35.6255C31.6666 35.8139 31.6188 35.9988 31.5284 36.1604C31.438 36.3221 31.3084 36.4544 31.1533 36.5433C30.9983 36.6323 30.8236 36.6745 30.648 36.6655C30.4723 36.6565 30.3022 36.5966 30.1558 36.4922L20 30.6275L9.84416 36.4922C9.69776 36.5966 9.52767 36.6565 9.35201 36.6655C9.17635 36.6745 9.0017 36.6323 8.84666 36.5433C8.69162 36.4544 8.562 36.3221 8.47161 36.1604C8.38121 35.9988 8.33342 35.8139 8.33333 35.6255V7.50007ZM12.2222 5.4167C11.7065 5.4167 11.2119 5.6362 10.8473 6.02691C10.4826 6.41761 10.2778 6.94752 10.2778 7.50007V33.6797L19.4614 28.5087C19.6209 28.395 19.8083 28.3343 20 28.3343C20.1917 28.3343 20.379 28.395 20.5386 28.5087L29.7222 33.6797V7.50007C29.7222 6.94752 29.5174 6.41761 29.1527 6.02691C28.788 5.6362 28.2935 5.4167 27.7778 5.4167H12.2222Z" fill="#8A91AB"></path>
    </g>
  </symbol>
  <symbol fill="none" xmlns="http://www.w3.org/2000/svg" viewBox="0 0 24 24" id="Bookmark_active">
    <g id="Bookmark_use">
      <g id="Vector">
        <path d="M5 4.50004C5 3.83699 5.24583 3.20109 5.68342 2.73224C6.121 2.2634 6.71449 2 7.33333 2H16.6667C17.2855 2 17.879 2.2634 18.3166 2.73224C18.7542 3.20109 19 3.83699 19 4.50004V21.3753C18.9999 21.4884 18.9713 21.5993 18.917 21.6963C18.8628 21.7932 18.785 21.8726 18.692 21.926C18.599 21.9794 18.4942 22.0047 18.3888 21.9993C18.2834 21.9939 18.1813 21.958 18.0935 21.8953L12 18.3765L5.9065 21.8953C5.81866 21.958 5.7166 21.9939 5.61121 21.9993C5.50581 22.0047 5.40102 21.9794 5.308 21.926C5.21498 21.8726 5.1372 21.7932 5.08297 21.6963C5.02873 21.5993 5.00005 21.4884 5 21.3753V4.50004ZM7.33333 3.25002C7.02391 3.25002 6.72717 3.38172 6.50838 3.61614C6.28958 3.85057 6.16667 4.16851 6.16667 4.50004V20.2078L11.6768 17.1052C11.7726 17.037 11.885 17.0006 12 17.0006C12.115 17.0006 12.2274 17.037 12.3232 17.1052L17.8333 20.2078V4.50004C17.8333 4.16851 17.7104 3.85057 17.4916 3.61614C17.2728 3.38172 16.9761 3.25002 16.6667 3.25002H7.33333Z" fill="#8A91AB"></path>
        <path d="M7.33333 3.25002C7.02391 3.25002 6.72717 3.38172 6.50838 3.61614C6.28958 3.85057 6.16667 4.16851 6.16667 4.50004V20.2078L11.6768 17.1052C11.7726 17.037 11.885 17.0006 12 17.0006C12.115 17.0006 12.2274 17.037 12.3232 17.1052L17.8333 20.2078V4.50004C17.8333 4.16851 17.7104 3.85057 17.4916 3.61614C17.2728 3.38172 16.9761 3.25002 16.6667 3.25002H7.33333Z" fill="#8A91AB"></path>
      </g>
    </g>
  </symbol>
</svg>
